# xmcd
# 
# Track frame offsets:
#     150
#     18753
#     38748
#     52837
#     69068
#     83197
#     101953
#     117530
#     129301
#     145091
#     162529
#     188866
#     204560
#     219261
# 
# Disc length: 3225
# 
# Revision: 1
# Processed by: cddbd v1.5.2PL0 Copyright (c) Steve Scherf et al.
# Submitted via: fre:ac v1.0.17
# 
DISCID=bc0c970e
DTITLE=Meshell Ndegeocello - Pour une Âme Souveraine: A Dedication to Nina Simone
DYEAR=2012
DGENRE=Blues
TTITLE0=Please Don't Let Me Be Misunderstood
TTITLE1=Suzanne
TTITLE2=Real Real
TTITLE3=House Of The Rising Sun
TTITLE4=Turn Me On
TTITLE5=Feeling Good
TTITLE6=Don't Take All Night
TTITLE7=Nobody's Fault but Mine
TTITLE8=Be My Husband
TTITLE9=Black Is the Color of My True Loves Hair
TTITLE10=See Lion Woman
TTITLE11=Either Way I Lose
TTITLE12=To Be Young, Gifted and Black
TTITLE13=Four Women
EXTD=
EXTT0=
EXTT1=
EXTT2=
EXTT3=
EXTT4=
EXTT5=
EXTT6=
EXTT7=
EXTT8=
EXTT9=
EXTT10=
EXTT11=
EXTT12=
EXTT13=
PLAYORDER=
